<svg width="9" height="9" viewBox="0 0 9 9" fill="none" xmlns="http://www.w3.org/2000/svg">
<path d="M2.944 8.208C2.29333 8.208 1.824 7.99467 1.536 7.568C1.25867 7.13067 1.12 6.57067 1.12 5.888C1.12 5.64267 1.13067 5.40267 1.152 5.168C1.184 4.93333 1.216 4.69867 1.248 4.464C1.28 4.22933 1.312 4 1.344 3.776C1.376 3.552 1.40267 3.33867 1.424 3.136C1.2 3.2 0.976 3.232 0.752 3.232C0.517333 3.232 0.4 3.136 0.4 2.944C0.4 2.74133 0.490667 2.496 0.672 2.208C0.853333 1.90933 1.07733 1.616 1.344 1.328C1.62133 1.04 1.89333 0.8 2.16 0.608C2.43733 0.405333 2.672 0.303999 2.864 0.303999C3.09867 0.303999 3.216 0.506666 3.216 0.912C3.216 1.01867 3.20533 1.13067 3.184 1.248C3.17333 1.35467 3.15733 1.46667 3.136 1.584C3.33867 1.54133 3.54133 1.504 3.744 1.472C3.95733 1.44 4.16 1.424 4.352 1.424C4.59733 1.424 4.784 1.46667 4.912 1.552C5.05067 1.63733 5.12 1.80267 5.12 2.048C5.12 2.304 5.056 2.56 4.928 2.816C4.81067 3.072 4.67733 3.2 4.528 3.2C4.496 3.2 4.44267 3.19467 4.368 3.184C4.29333 3.17333 4.20267 3.15733 4.096 3.136C3.95733 3.104 3.78133 3.072 3.568 3.04C3.35467 3.008 3.09867 2.992 2.8 2.992C2.72533 3.32267 2.656 3.664 2.592 4.016C2.53867 4.35733 2.512 4.66667 2.512 4.944C2.512 5.56267 2.66667 5.984 2.976 6.208C3.28533 6.432 3.73333 6.544 4.32 6.544C4.50133 6.544 4.62933 6.576 4.704 6.64C4.77867 6.69333 4.816 6.79467 4.816 6.944C4.816 7.296 4.63467 7.59467 4.272 7.84C3.90933 8.08533 3.46667 8.208 2.944 8.208ZM6.97537 8.144C6.67671 8.144 6.43137 8.048 6.23937 7.856C6.05804 7.664 5.96737 7.41867 5.96737 7.12C5.96737 6.81067 6.06871 6.55467 6.27137 6.352C6.47404 6.14933 6.73537 6.048 7.05537 6.048C7.35404 6.048 7.59404 6.13867 7.77537 6.32C7.95671 6.50133 8.04737 6.74133 8.04737 7.04C8.04737 7.36 7.94604 7.62667 7.74338 7.84C7.54071 8.04267 7.28471 8.144 6.97537 8.144Z" fill="#23242A"/>
</svg>
